<svg width="15" height="15" viewBox="0 0 15 15" fill="none" xmlns="http://www.w3.org/2000/svg">
<path d="M13.2553 11.2133L10.4403 9.76293C10.045 9.55799 9.55473 9.66834 9.28589 10.0152L8.25795 11.3394C7.24583 10.8034 6.48673 10.2832 5.60112 9.40034C4.65226 8.45447 4.14619 7.682 3.64013 6.7046L4.95273 5.6799C5.30065 5.4119 5.41135 4.9232 5.20576 4.52909L3.75083 1.73876C3.4978 1.25005 2.86522 1.09241 2.40661 1.39194L0.619574 2.59004C0.208398 2.87381 -0.0288185 3.34674 0.0028104 3.83545C0.0344393 4.33991 0.0976971 4.98626 0.224213 5.42767C0.746089 7.42977 1.99543 9.49493 3.76665 11.2448C5.52205 12.9947 7.59374 14.2401 9.60218 14.7761C10.045 14.8864 10.6934 14.9495 11.2153 14.9968C11.7213 15.0283 12.2116 14.7918 12.4804 14.3662L13.6507 12.5533C13.9037 12.0803 13.7297 11.4655 13.2553 11.2133Z" fill="#004F8B"/>
<path d="M7.56245 5.8851C7.91037 5.97969 8.25829 6.16887 8.52713 6.45263C8.81179 6.73639 9.00156 7.06745 9.09645 7.41427C9.17552 7.69803 9.44437 7.88721 9.74484 7.87144H9.8081C10.2193 7.85568 10.5197 7.46156 10.409 7.06745C10.2509 6.49992 9.95043 5.94816 9.49181 5.50675C9.03319 5.04958 8.4955 4.75005 7.92618 4.59241C7.53082 4.48206 7.13546 4.78158 7.11965 5.19146V5.25452C7.08802 5.53828 7.27779 5.80628 7.56245 5.8851Z" fill="#004F8B"/>
<path d="M7.75175 3.61515C8.62154 3.77279 9.45971 4.18267 10.1239 4.84478C10.8039 5.52266 11.2151 6.34242 11.3574 7.20947C11.4207 7.52476 11.7054 7.76123 12.0375 7.74547H12.0849C12.4803 7.7297 12.7649 7.36712 12.6859 6.98877C12.4803 5.85372 11.9426 4.76596 11.0728 3.88314C10.1872 3.00033 9.11179 2.46433 7.95734 2.27516C7.57779 2.2121 7.21406 2.49586 7.19824 2.87421V2.9215C7.19824 3.26832 7.43546 3.55209 7.75175 3.61515Z" fill="#004F8B"/>
<path d="M14.9947 6.89404C14.7575 5.20723 13.9984 3.58347 12.7016 2.29078C11.4049 0.998083 9.77597 0.241384 8.08382 0.00491489C7.70428 -0.0423789 7.35636 0.225619 7.34055 0.619734V0.682792C7.32473 1.02961 7.57776 1.31338 7.90987 1.36067C9.31735 1.54984 10.6616 2.19619 11.737 3.26818C12.8123 4.34017 13.4449 5.69593 13.6505 7.08321C13.6979 7.41427 13.9826 7.6665 14.3305 7.65074H14.3938C14.7575 7.61921 15.0422 7.27239 14.9947 6.89404Z" fill="#004F8B"/>
</svg>
